{
    "asset" : {
        "generator" : "Khronos glTF Blender I/O v1.5.17",
        "version" : "2.0"
    },
    "scene" : 0,
    "scenes" : [
        {
            "name" : "Scene",
            "nodes" : [
                0,
                1,
                2,
                3
            ]
        }
    ],
    "nodes" : [
        {
            "mesh" : 0,
            "name" : "Triangle",
            "scale" : [
                1.224505066871643,
                1,
                0.6741273403167725
            ]
        },
        {
            "mesh" : 1,
            "name" : "ExtraTr",
            "rotation" : [
                0,
                -7.528992864536121e-05,
                0,
                1
            ],
            "scale" : [
                1.224505066871643,
                1,
                0.6741273403167725
            ],
            "translation" : [
                4.1999335289001465,
                0.5,
                0.0016076731262728572
            ]
        },
        {
            "mesh" : 2,
            "name" : "Plane.001",
            "scale" : [
                7.179998874664307,
                1,
                -0.10384383052587509
            ],
            "translation" : [
                0,
                1,
                4.345592975616455
            ]
        },
        {
            "mesh" : 3,
            "name" : "Plane.002",
            "rotation" : [
                0,
                0.7071068286895752,
                0,
                0.7071068286895752
            ],
            "scale" : [
                3.769998788833618,
                1,
                -0.10384383052587509
            ],
            "translation" : [
                -4.862081050872803,
                1,
                0.026366082951426506
            ]
        }
    ],
    "animations" : [
        {
            "channels" : [
                {
                    "sampler" : 0,
                    "target" : {
                        "node" : 1,
                        "path" : "rotation"
                    }
                }
            ],
            "name" : "ExtraTrAction.004",
            "samplers" : [
                {
                    "input" : 15,
                    "interpolation" : "LINEAR",
                    "output" : 16
                }
            ]
        }
    ],
    "materials" : [
        {
            "doubleSided" : true,
            "name" : "Archipluvian_Violet",
            "pbrMetallicRoughness" : {
                "baseColorFactor" : [
                    0.054999176412820816,
                    0,
                    0.07675069570541382,
                    1
                ],
                "metallicFactor" : 0,
                "roughnessFactor" : 0.5
            }
        },
        {
            "doubleSided" : true,
            "name" : "Archipluvian_Green",
            "pbrMetallicRoughness" : {
                "baseColorFactor" : [
                    0,
                    0.7831567525863647,
                    0.04257494583725929,
                    1
                ],
                "metallicFactor" : 0,
                "roughnessFactor" : 0.5
            }
        },
        {
            "doubleSided" : true,
            "name" : "Archipluvian_White",
            "pbrMetallicRoughness" : {
                "baseColorFactor" : [
                    0.800000011920929,
                    0.800000011920929,
                    0.800000011920929,
                    1
                ],
                "metallicFactor" : 0,
                "roughnessFactor" : 0.5
            }
        }
    ],
    "meshes" : [
        {
            "name" : "Plane.002",
            "primitives" : [
                {
                    "attributes" : {
                        "POSITION" : 0,
                        "NORMAL" : 1,
                        "TEXCOORD_0" : 2
                    },
                    "indices" : 3,
                    "material" : 0
                }
            ]
        },
        {
            "name" : "Plane.003",
            "primitives" : [
                {
                    "attributes" : {
                        "POSITION" : 4,
                        "NORMAL" : 5,
                        "TEXCOORD_0" : 6
                    },
                    "indices" : 7,
                    "material" : 1
                }
            ]
        },
        {
            "name" : "Plane.001",
            "primitives" : [
                {
                    "attributes" : {
                        "POSITION" : 8,
                        "NORMAL" : 9,
                        "TEXCOORD_0" : 10
                    },
                    "indices" : 11,
                    "material" : 0
                }
            ]
        },
        {
            "name" : "Plane.005",
            "primitives" : [
                {
                    "attributes" : {
                        "POSITION" : 12,
                        "NORMAL" : 13,
                        "TEXCOORD_0" : 14
                    },
                    "indices" : 11,
                    "material" : 2
                }
            ]
        }
    ],
    "accessors" : [
        {
            "bufferView" : 0,
            "componentType" : 5126,
            "count" : 24,
            "max" : [
                5.869999885559082,
                0.5,
                5.869999885559082
            ],
            "min" : [
                -5.869999885559082,
                0,
                -5.869999885559082
            ],
            "type" : "VEC3"
        },
        {
            "bufferView" : 1,
            "componentType" : 5126,
            "count" : 24,
            "type" : "VEC3"
        },
        {
            "bufferView" : 2,
            "componentType" : 5126,
            "count" : 24,
            "type" : "VEC2"
        },
        {
            "bufferView" : 3,
            "componentType" : 5123,
            "count" : 36,
            "type" : "SCALAR"
        },
        {
            "bufferView" : 4,
            "componentType" : 5126,
            "count" : 888,
            "max" : [
                -0.006142139434814453,
                0.4999999403953552,
                0.016201402992010117
            ],
            "min" : [
                -7.592482566833496,
                -0.49995702505111694,
                -6.4926581382751465
            ],
            "type" : "VEC3"
        },
        {
            "bufferView" : 5,
            "componentType" : 5126,
            "count" : 888,
            "type" : "VEC3"
        },
        {
            "bufferView" : 6,
            "componentType" : 5126,
            "count" : 888,
            "type" : "VEC2"
        },
        {
            "bufferView" : 7,
            "componentType" : 5123,
            "count" : 1308,
            "type" : "SCALAR"
        },
        {
            "bufferView" : 8,
            "componentType" : 5126,
            "count" : 864,
            "max" : [
                1,
                0,
                1
            ],
            "min" : [
                -1,
                -0.25,
                -1
            ],
            "type" : "VEC3"
        },
        {
            "bufferView" : 9,
            "componentType" : 5126,
            "count" : 864,
            "type" : "VEC3"
        },
        {
            "bufferView" : 10,
            "componentType" : 5126,
            "count" : 864,
            "type" : "VEC2"
        },
        {
            "bufferView" : 11,
            "componentType" : 5123,
            "count" : 1284,
            "type" : "SCALAR"
        },
        {
            "bufferView" : 12,
            "componentType" : 5126,
            "count" : 864,
            "max" : [
                1,
                0,
                1
            ],
            "min" : [
                -1,
                -0.25,
                -1
            ],
            "type" : "VEC3"
        },
        {
            "bufferView" : 13,
            "componentType" : 5126,
            "count" : 864,
            "type" : "VEC3"
        },
        {
            "bufferView" : 14,
            "componentType" : 5126,
            "count" : 864,
            "type" : "VEC2"
        },
        {
            "bufferView" : 15,
            "componentType" : 5126,
            "count" : 150,
            "max" : [
                6.25
            ],
            "min" : [
                0.041666666666666664
            ],
            "type" : "SCALAR"
        },
        {
            "bufferView" : 16,
            "componentType" : 5126,
            "count" : 150,
            "type" : "VEC4"
        }
    ],
    "bufferViews" : [
        {
            "buffer" : 0,
            "byteLength" : 288,
            "byteOffset" : 0
        },
        {
            "buffer" : 0,
            "byteLength" : 288,
            "byteOffset" : 288
        },
        {
            "buffer" : 0,
            "byteLength" : 192,
            "byteOffset" : 576
        },
        {
            "buffer" : 0,
            "byteLength" : 72,
            "byteOffset" : 768
        },
        {
            "buffer" : 0,
            "byteLength" : 10656,
            "byteOffset" : 840
        },
        {
            "buffer" : 0,
            "byteLength" : 10656,
            "byteOffset" : 11496
        },
        {
            "buffer" : 0,
            "byteLength" : 7104,
            "byteOffset" : 22152
        },
        {
            "buffer" : 0,
            "byteLength" : 2616,
            "byteOffset" : 29256
        },
        {
            "buffer" : 0,
            "byteLength" : 10368,
            "byteOffset" : 31872
        },
        {
            "buffer" : 0,
            "byteLength" : 10368,
            "byteOffset" : 42240
        },
        {
            "buffer" : 0,
            "byteLength" : 6912,
            "byteOffset" : 52608
        },
        {
            "buffer" : 0,
            "byteLength" : 2568,
            "byteOffset" : 59520
        },
        {
            "buffer" : 0,
            "byteLength" : 10368,
            "byteOffset" : 62088
        },
        {
            "buffer" : 0,
            "byteLength" : 10368,
            "byteOffset" : 72456
        },
        {
            "buffer" : 0,
            "byteLength" : 6912,
            "byteOffset" : 82824
        },
        {
            "buffer" : 0,
            "byteLength" : 600,
            "byteOffset" : 89736
        },
        {
            "buffer" : 0,
            "byteLength" : 2400,
            "byteOffset" : 90336
        }
    ],
    "buffers" : [
        {
            "byteLength" : 92736,
            "uri" : "data:application/octet-stream;base64,"
        }
    ]
}
