{
    "asset" : {
        "generator" : "Khronos glTF Blender I/O v1.5.17",
        "version" : "2.0"
    },
    "scene" : 0,
    "scenes" : [
        {
            "name" : "Scene",
            "nodes" : [
                0,
                1,
                2
            ]
        }
    ],
    "nodes" : [
        {
            "mesh" : 0,
            "name" : "Triangle",
            "rotation" : [
                0.2588190734386444,
                0,
                0,
                0.965925931930542
            ],
            "scale" : [
                1.224505066871643,
                1,
                0.6741273403167725
            ],
            "translation" : [
                0,
                0,
                -0.2549999952316284
            ]
        },
        {
            "mesh" : 1,
            "name" : "ExtraTr",
            "rotation" : [
                0.2588190734386444,
                -7.272449147421867e-05,
                1.948646968230605e-05,
                0.965925931930542
            ],
            "scale" : [
                1.224505066871643,
                1,
                0.6741273403167725
            ],
            "translation" : [
                4.1999335289001465,
                0.42306575179100037,
                0.04160767048597336
            ]
        },
        {
            "mesh" : 2,
            "name" : "Height",
            "rotation" : [
                0.18570753931999207,
                0.6930699348449707,
                0.18027763068675995,
                0.6728052496910095
            ],
            "scale" : [
                3.769998788833618,
                1,
                -0.10384383052587509
            ],
            "translation" : [
                -4.832080841064453,
                0.8500000238418579,
                0.3263660669326782
            ]
        }
    ],
    "animations" : [
        {
            "channels" : [
                {
                    "sampler" : 0,
                    "target" : {
                        "node" : 1,
                        "path" : "rotation"
                    }
                }
            ],
            "name" : "ExtraTrAction.004",
            "samplers" : [
                {
                    "input" : 12,
                    "interpolation" : "LINEAR",
                    "output" : 13
                }
            ]
        }
    ],
    "materials" : [
        {
            "doubleSided" : true,
            "name" : "Archipluvian_Violet",
            "pbrMetallicRoughness" : {
                "baseColorFactor" : [
                    0.054999176412820816,
                    0,
                    0.07675069570541382,
                    1
                ],
                "metallicFactor" : 0,
                "roughnessFactor" : 0.5
            }
        },
        {
            "doubleSided" : true,
            "name" : "Archipluvian_Green",
            "pbrMetallicRoughness" : {
                "baseColorFactor" : [
                    0,
                    0.7831567525863647,
                    0.04257494583725929,
                    1
                ],
                "metallicFactor" : 0,
                "roughnessFactor" : 0.5
            }
        },
        {
            "doubleSided" : true,
            "name" : "Archipluvian_White",
            "pbrMetallicRoughness" : {
                "baseColorFactor" : [
                    0.800000011920929,
                    0.800000011920929,
                    0.800000011920929,
                    1
                ],
                "metallicFactor" : 0,
                "roughnessFactor" : 0.5
            }
        }
    ],
    "meshes" : [
        {
            "name" : "Plane.002",
            "primitives" : [
                {
                    "attributes" : {
                        "POSITION" : 0,
                        "NORMAL" : 1,
                        "TEXCOORD_0" : 2
                    },
                    "indices" : 3,
                    "material" : 0
                }
            ]
        },
        {
            "name" : "Plane.003",
            "primitives" : [
                {
                    "attributes" : {
                        "POSITION" : 4,
                        "NORMAL" : 5,
                        "TEXCOORD_0" : 6
                    },
                    "indices" : 7,
                    "material" : 1
                }
            ]
        },
        {
            "name" : "Plane.005",
            "primitives" : [
                {
                    "attributes" : {
                        "POSITION" : 8,
                        "NORMAL" : 9,
                        "TEXCOORD_0" : 10
                    },
                    "indices" : 11,
                    "material" : 2
                }
            ]
        }
    ],
    "accessors" : [
        {
            "bufferView" : 0,
            "componentType" : 5126,
            "count" : 888,
            "max" : [
                5.869999885559082,
                0.9999999403953552,
                6.600290775299072
            ],
            "min" : [
                -5.869999885559082,
                0,
                -5.869999885559082
            ],
            "type" : "VEC3"
        },
        {
            "bufferView" : 1,
            "componentType" : 5126,
            "count" : 888,
            "type" : "VEC3"
        },
        {
            "bufferView" : 2,
            "componentType" : 5126,
            "count" : 888,
            "type" : "VEC2"
        },
        {
            "bufferView" : 3,
            "componentType" : 5123,
            "count" : 1320,
            "type" : "SCALAR"
        },
        {
            "bufferView" : 4,
            "componentType" : 5126,
            "count" : 888,
            "max" : [
                -0.006142139434814453,
                0.4999999403953552,
                0.016201402992010117
            ],
            "min" : [
                -7.592482566833496,
                -0.49995702505111694,
                -6.4926581382751465
            ],
            "type" : "VEC3"
        },
        {
            "bufferView" : 5,
            "componentType" : 5126,
            "count" : 888,
            "type" : "VEC3"
        },
        {
            "bufferView" : 6,
            "componentType" : 5126,
            "count" : 888,
            "type" : "VEC2"
        },
        {
            "bufferView" : 7,
            "componentType" : 5123,
            "count" : 1308,
            "type" : "SCALAR"
        },
        {
            "bufferView" : 8,
            "componentType" : 5126,
            "count" : 864,
            "max" : [
                1,
                0,
                1
            ],
            "min" : [
                -1,
                -0.25,
                -1
            ],
            "type" : "VEC3"
        },
        {
            "bufferView" : 9,
            "componentType" : 5126,
            "count" : 864,
            "type" : "VEC3"
        },
        {
            "bufferView" : 10,
            "componentType" : 5126,
            "count" : 864,
            "type" : "VEC2"
        },
        {
            "bufferView" : 11,
            "componentType" : 5123,
            "count" : 1284,
            "type" : "SCALAR"
        },
        {
            "bufferView" : 12,
            "componentType" : 5126,
            "count" : 125,
            "max" : [
                5.208333333333333
            ],
            "min" : [
                0.041666666666666664
            ],
            "type" : "SCALAR"
        },
        {
            "bufferView" : 13,
            "componentType" : 5126,
            "count" : 125,
            "type" : "VEC4"
        }
    ],
    "bufferViews" : [
        {
            "buffer" : 0,
            "byteLength" : 10656,
            "byteOffset" : 0
        },
        {
            "buffer" : 0,
            "byteLength" : 10656,
            "byteOffset" : 10656
        },
        {
            "buffer" : 0,
            "byteLength" : 7104,
            "byteOffset" : 21312
        },
        {
            "buffer" : 0,
            "byteLength" : 2640,
            "byteOffset" : 28416
        },
        {
            "buffer" : 0,
            "byteLength" : 10656,
            "byteOffset" : 31056
        },
        {
            "buffer" : 0,
            "byteLength" : 10656,
            "byteOffset" : 41712
        },
        {
            "buffer" : 0,
            "byteLength" : 7104,
            "byteOffset" : 52368
        },
        {
            "buffer" : 0,
            "byteLength" : 2616,
            "byteOffset" : 59472
        },
        {
            "buffer" : 0,
            "byteLength" : 10368,
            "byteOffset" : 62088
        },
        {
            "buffer" : 0,
            "byteLength" : 10368,
            "byteOffset" : 72456
        },
        {
            "buffer" : 0,
            "byteLength" : 6912,
            "byteOffset" : 82824
        },
        {
            "buffer" : 0,
            "byteLength" : 2568,
            "byteOffset" : 89736
        },
        {
            "buffer" : 0,
            "byteLength" : 500,
            "byteOffset" : 92304
        },
        {
            "buffer" : 0,
            "byteLength" : 2000,
            "byteOffset" : 92804
        }
    ],
    "buffers" : [
        {
            "byteLength" : 94804,
            "uri" : "data:application/octet-stream;base64,"
        }
    ]
}
