{
    "asset" : {
        "generator" : "Khronos glTF Blender I/O v1.5.17",
        "version" : "2.0"
    },
    "scene" : 0,
    "scenes" : [
        {
            "name" : "Scene",
            "nodes" : [
                0,
                1,
                2,
                3,
                4,
                5
            ]
        }
    ],
    "nodes" : [
        {
            "mesh" : 0,
            "name" : "Triangle",
            "rotation" : [
                0.2588190734386444,
                0,
                0,
                0.965925931930542
            ],
            "scale" : [
                0.030612749978899956,
                0.02500000037252903,
                0.016853250563144684
            ],
            "translation" : [
                0,
                0,
                -0.2549999952316284
            ]
        },
        {
            "mesh" : 1,
            "name" : "ExtraTr",
            "rotation" : [
                0.2588190734386444,
                -7.272449147421867e-05,
                1.948646968230605e-05,
                0.965925931930542
            ],
            "scale" : [
                0.030612749978899956,
                0.02500000037252903,
                0.016853250563144684
            ],
            "translation" : [
                0.10465360432863235,
                0.010409906506538391,
                -0.24840347468852997
            ]
        },
        {
            "mesh" : 2,
            "name" : "Height",
            "rotation" : [
                0.18570753931999207,
                0.6930699348449707,
                0.18027763068675995,
                0.6728052496910095
            ],
            "scale" : [
                0.09425000101327896,
                0.02500000037252903,
                -0.0025961000937968493
            ],
            "translation" : [
                -0.1219961941242218,
                0.019999999552965164,
                -0.24516597390174866
            ]
        },
        {
            "mesh" : 3,
            "name" : "Text",
            "rotation" : [
                0.2588190734386444,
                0,
                0,
                0.965925931930542
            ],
            "scale" : [
                0.25,
                0.25,
                0.25
            ],
            "translation" : [
                0.1044655442237854,
                0.016244493424892426,
                -0.24471962451934814
            ]
        },
        {
            "mesh" : 4,
            "name" : "Text.001",
            "rotation" : [
                0.2588190734386444,
                0,
                0,
                0.965925931930542
            ],
            "scale" : [
                0.25,
                0.25,
                0.25
            ],
            "translation" : [
                -0.04515978321433067,
                -0.05324520915746689,
                -0.12043845653533936
            ]
        },
        {
            "mesh" : 5,
            "name" : "Text.002",
            "rotation" : [
                0.2588190734386444,
                0,
                0,
                0.965925931930542
            ],
            "scale" : [
                0.25,
                0.25,
                0.25
            ],
            "translation" : [
                -0.09189771115779877,
                0.0192183256149292,
                -0.22827787697315216
            ]
        }
    ],
    "animations" : [
        {
            "channels" : [
                {
                    "sampler" : 0,
                    "target" : {
                        "node" : 1,
                        "path" : "rotation"
                    }
                }
            ],
            "name" : "ExtraTrAction.004",
            "samplers" : [
                {
                    "input" : 24,
                    "interpolation" : "LINEAR",
                    "output" : 25
                }
            ]
        }
    ],
    "materials" : [
        {
            "doubleSided" : true,
            "name" : "Archipluvian_Violet",
            "pbrMetallicRoughness" : {
                "baseColorFactor" : [
                    0.054999176412820816,
                    0,
                    0.07675069570541382,
                    1
                ],
                "metallicFactor" : 0,
                "roughnessFactor" : 0.5
            }
        },
        {
            "doubleSided" : true,
            "name" : "Archipluvian_Green",
            "pbrMetallicRoughness" : {
                "baseColorFactor" : [
                    0,
                    0.7831567525863647,
                    0.04257494583725929,
                    1
                ],
                "metallicFactor" : 0,
                "roughnessFactor" : 0.5
            }
        },
        {
            "doubleSided" : true,
            "name" : "Archipluvian_White",
            "pbrMetallicRoughness" : {
                "baseColorFactor" : [
                    0.800000011920929,
                    0.800000011920929,
                    0.800000011920929,
                    1
                ],
                "metallicFactor" : 0,
                "roughnessFactor" : 0.5
            }
        }
    ],
    "meshes" : [
        {
            "name" : "Plane.002",
            "primitives" : [
                {
                    "attributes" : {
                        "POSITION" : 0,
                        "NORMAL" : 1,
                        "TEXCOORD_0" : 2
                    },
                    "indices" : 3,
                    "material" : 0
                }
            ]
        },
        {
            "name" : "Plane.003",
            "primitives" : [
                {
                    "attributes" : {
                        "POSITION" : 4,
                        "NORMAL" : 5,
                        "TEXCOORD_0" : 6
                    },
                    "indices" : 7,
                    "material" : 1
                }
            ]
        },
        {
            "name" : "Plane.005",
            "primitives" : [
                {
                    "attributes" : {
                        "POSITION" : 8,
                        "NORMAL" : 9,
                        "TEXCOORD_0" : 10
                    },
                    "indices" : 11,
                    "material" : 2
                }
            ]
        },
        {
            "name" : "Text.001",
            "primitives" : [
                {
                    "attributes" : {
                        "POSITION" : 12,
                        "NORMAL" : 13,
                        "TEXCOORD_0" : 14
                    },
                    "indices" : 15,
                    "material" : 1
                }
            ]
        },
        {
            "name" : "Text.002",
            "primitives" : [
                {
                    "attributes" : {
                        "POSITION" : 16,
                        "NORMAL" : 17,
                        "TEXCOORD_0" : 18
                    },
                    "indices" : 19,
                    "material" : 0
                }
            ]
        },
        {
            "name" : "Text.003",
            "primitives" : [
                {
                    "attributes" : {
                        "POSITION" : 20,
                        "NORMAL" : 21,
                        "TEXCOORD_0" : 22
                    },
                    "indices" : 23
                }
            ]
        }
    ],
    "accessors" : [
        {
            "bufferView" : 0,
            "componentType" : 5126,
            "count" : 888,
            "max" : [
                5.869999885559082,
                0.9999999403953552,
                6.600290775299072
            ],
            "min" : [
                -5.869999885559082,
                0,
                -5.869999885559082
            ],
            "type" : "VEC3"
        },
        {
            "bufferView" : 1,
            "componentType" : 5126,
            "count" : 888,
            "type" : "VEC3"
        },
        {
            "bufferView" : 2,
            "componentType" : 5126,
            "count" : 888,
            "type" : "VEC2"
        },
        {
            "bufferView" : 3,
            "componentType" : 5123,
            "count" : 1320,
            "type" : "SCALAR"
        },
        {
            "bufferView" : 4,
            "componentType" : 5126,
            "count" : 888,
            "max" : [
                -0.006142139434814453,
                0.4999999403953552,
                0.016201402992010117
            ],
            "min" : [
                -7.592482566833496,
                -0.49995702505111694,
                -6.4926581382751465
            ],
            "type" : "VEC3"
        },
        {
            "bufferView" : 5,
            "componentType" : 5126,
            "count" : 888,
            "type" : "VEC3"
        },
        {
            "bufferView" : 6,
            "componentType" : 5126,
            "count" : 888,
            "type" : "VEC2"
        },
        {
            "bufferView" : 7,
            "componentType" : 5123,
            "count" : 1308,
            "type" : "SCALAR"
        },
        {
            "bufferView" : 8,
            "componentType" : 5126,
            "count" : 864,
            "max" : [
                1,
                0,
                1
            ],
            "min" : [
                -1,
                -0.25,
                -1
            ],
            "type" : "VEC3"
        },
        {
            "bufferView" : 9,
            "componentType" : 5126,
            "count" : 864,
            "type" : "VEC3"
        },
        {
            "bufferView" : 10,
            "componentType" : 5126,
            "count" : 864,
            "type" : "VEC2"
        },
        {
            "bufferView" : 11,
            "componentType" : 5123,
            "count" : 1284,
            "type" : "SCALAR"
        },
        {
            "bufferView" : 12,
            "componentType" : 5126,
            "count" : 1572,
            "max" : [
                -0.5557072162628174,
                0.009999999776482582,
                -0.4643591046333313
            ],
            "min" : [
                -0.6401900053024292,
                -0.009999999776482582,
                -0.5668495297431946
            ],
            "type" : "VEC3"
        },
        {
            "bufferView" : 13,
            "componentType" : 5126,
            "count" : 1572,
            "type" : "VEC3"
        },
        {
            "bufferView" : 14,
            "componentType" : 5126,
            "count" : 1572,
            "type" : "VEC2"
        },
        {
            "bufferView" : 15,
            "componentType" : 5123,
            "count" : 2832,
            "type" : "SCALAR"
        },
        {
            "bufferView" : 16,
            "componentType" : 5126,
            "count" : 1808,
            "max" : [
                0.06829501688480377,
                0.009999999776482582,
                0.05124521255493164
            ],
            "min" : [
                -0.0338122621178627,
                -0.009999999776482582,
                -0.09185824543237686
            ],
            "type" : "VEC3"
        },
        {
            "bufferView" : 17,
            "componentType" : 5126,
            "count" : 1808,
            "type" : "VEC3"
        },
        {
            "bufferView" : 18,
            "componentType" : 5126,
            "count" : 1808,
            "type" : "VEC2"
        },
        {
            "bufferView" : 19,
            "componentType" : 5123,
            "count" : 3228,
            "type" : "SCALAR"
        },
        {
            "bufferView" : 20,
            "componentType" : 5126,
            "count" : 666,
            "max" : [
                0.058908045291900635,
                0.009999999776482582,
                0.050287358462810516
            ],
            "min" : [
                -0.0338122621178627,
                -0.009999999776482582,
                -0.09185824543237686
            ],
            "type" : "VEC3"
        },
        {
            "bufferView" : 21,
            "componentType" : 5126,
            "count" : 666,
            "type" : "VEC3"
        },
        {
            "bufferView" : 22,
            "componentType" : 5126,
            "count" : 666,
            "type" : "VEC2"
        },
        {
            "bufferView" : 23,
            "componentType" : 5123,
            "count" : 1236,
            "type" : "SCALAR"
        },
        {
            "bufferView" : 24,
            "componentType" : 5126,
            "count" : 190,
            "max" : [
                7.916666666666667
            ],
            "min" : [
                0.041666666666666664
            ],
            "type" : "SCALAR"
        },
        {
            "bufferView" : 25,
            "componentType" : 5126,
            "count" : 190,
            "type" : "VEC4"
        }
    ],
    "bufferViews" : [
        {
            "buffer" : 0,
            "byteLength" : 10656,
            "byteOffset" : 0
        },
        {
            "buffer" : 0,
            "byteLength" : 10656,
            "byteOffset" : 10656
        },
        {
            "buffer" : 0,
            "byteLength" : 7104,
            "byteOffset" : 21312
        },
        {
            "buffer" : 0,
            "byteLength" : 2640,
            "byteOffset" : 28416
        },
        {
            "buffer" : 0,
            "byteLength" : 10656,
            "byteOffset" : 31056
        },
        {
            "buffer" : 0,
            "byteLength" : 10656,
            "byteOffset" : 41712
        },
        {
            "buffer" : 0,
            "byteLength" : 7104,
            "byteOffset" : 52368
        },
        {
            "buffer" : 0,
            "byteLength" : 2616,
            "byteOffset" : 59472
        },
        {
            "buffer" : 0,
            "byteLength" : 10368,
            "byteOffset" : 62088
        },
        {
            "buffer" : 0,
            "byteLength" : 10368,
            "byteOffset" : 72456
        },
        {
            "buffer" : 0,
            "byteLength" : 6912,
            "byteOffset" : 82824
        },
        {
            "buffer" : 0,
            "byteLength" : 2568,
            "byteOffset" : 89736
        },
        {
            "buffer" : 0,
            "byteLength" : 18864,
            "byteOffset" : 92304
        },
        {
            "buffer" : 0,
            "byteLength" : 18864,
            "byteOffset" : 111168
        },
        {
            "buffer" : 0,
            "byteLength" : 12576,
            "byteOffset" : 130032
        },
        {
            "buffer" : 0,
            "byteLength" : 5664,
            "byteOffset" : 142608
        },
        {
            "buffer" : 0,
            "byteLength" : 21696,
            "byteOffset" : 148272
        },
        {
            "buffer" : 0,
            "byteLength" : 21696,
            "byteOffset" : 169968
        },
        {
            "buffer" : 0,
            "byteLength" : 14464,
            "byteOffset" : 191664
        },
        {
            "buffer" : 0,
            "byteLength" : 6456,
            "byteOffset" : 206128
        },
        {
            "buffer" : 0,
            "byteLength" : 7992,
            "byteOffset" : 212584
        },
        {
            "buffer" : 0,
            "byteLength" : 7992,
            "byteOffset" : 220576
        },
        {
            "buffer" : 0,
            "byteLength" : 5328,
            "byteOffset" : 228568
        },
        {
            "buffer" : 0,
            "byteLength" : 2472,
            "byteOffset" : 233896
        },
        {
            "buffer" : 0,
            "byteLength" : 760,
            "byteOffset" : 236368
        },
        {
            "buffer" : 0,
            "byteLength" : 3040,
            "byteOffset" : 237128
        }
    ],
    "buffers" : [
        {
            "byteLength" : 240168,
            "uri" : "data:application/octet-stream;base64,"
        }
    ]
}
