{
    "asset" : {
        "generator" : "Khronos glTF Blender I/O v1.5.17",
        "version" : "2.0"
    },
    "scene" : 0,
    "scenes" : [
        {
            "name" : "Scene",
            "nodes" : [
                0,
                1,
                2,
                3,
                4,
                5
            ]
        }
    ],
    "nodes" : [
        {
            "mesh" : 0,
            "name" : "Triangle_Violet",
            "rotation" : [
                0.2588190734386444,
                0,
                0,
                0.965925931930542
            ],
            "scale" : [
                0.030612749978899956,
                0.02500000037252903,
                0.016853250563144684
            ]
        },
        {
            "mesh" : 1,
            "name" : "Triangle_Green",
            "rotation" : [
                0.2588190734386444,
                -7.272449147421867e-05,
                1.948646968230605e-05,
                0.965925931930542
            ],
            "scale" : [
                0.030612749978899956,
                0.02500000037252903,
                0.016853250563144684
            ],
            "translation" : [
                0.10465360432863235,
                0.010409906506538391,
                0.006596049293875694
            ]
        },
        {
            "mesh" : 2,
            "name" : "Line H",
            "rotation" : [
                0.18570753931999207,
                0.6930699348449707,
                0.18027763068675995,
                0.6728052496910095
            ],
            "scale" : [
                0.09425000101327896,
                0.02500000037252903,
                -0.0025961000937968493
            ],
            "translation" : [
                -0.1219961941242218,
                0.019999999552965164,
                0.00983354914933443
            ]
        },
        {
            "mesh" : 3,
            "name" : "Label B",
            "rotation" : [
                0.2588190734386444,
                0,
                0,
                0.965925931930542
            ],
            "scale" : [
                0.25,
                0.25,
                0.25
            ],
            "translation" : [
                -0.04515978321433067,
                -0.027739498764276505,
                0.14871487021446228
            ]
        },
        {
            "mesh" : 4,
            "name" : "Label H",
            "rotation" : [
                0.2588190734386444,
                0,
                0,
                0.965925931930542
            ],
            "scale" : [
                0.25,
                0.25,
                0.25
            ],
            "translation" : [
                -0.09189771115779877,
                0.0192183256149292,
                0.026721647009253502
            ]
        },
        {
            "mesh" : 5,
            "name" : "Label A",
            "rotation" : [
                0.2588190734386444,
                0,
                0,
                0.965925931930542
            ],
            "scale" : [
                0.25,
                0.25,
                0.25
            ],
            "translation" : [
                -0.04189841449260712,
                0.09288844466209412,
                -0.10007143020629883
            ]
        }
    ],
    "animations" : [
        {
            "channels" : [
                {
                    "sampler" : 0,
                    "target" : {
                        "node" : 1,
                        "path" : "rotation"
                    }
                },
                {
                    "sampler" : 1,
                    "target" : {
                        "node" : 5,
                        "path" : "translation"
                    }
                }
            ],
            "name" : "Animation",
            "samplers" : [
                {
                    "input" : 24,
                    "interpolation" : "LINEAR",
                    "output" : 25
                },
                {
                    "input" : 26,
                    "interpolation" : "LINEAR",
                    "output" : 27
                }
            ]
        }
    ],
    "materials" : [
        {
            "doubleSided" : true,
            "name" : "Archipluvian_Violet",
            "pbrMetallicRoughness" : {
                "baseColorFactor" : [
                    0.054999176412820816,
                    0,
                    0.07675069570541382,
                    1
                ],
                "metallicFactor" : 0,
                "roughnessFactor" : 0.5
            }
        },
        {
            "doubleSided" : true,
            "name" : "Archipluvian_Green",
            "pbrMetallicRoughness" : {
                "baseColorFactor" : [
                    0,
                    0.7831567525863647,
                    0.04257494583725929,
                    1
                ],
                "metallicFactor" : 0,
                "roughnessFactor" : 0.5
            }
        },
        {
            "doubleSided" : true,
            "name" : "Archipluvian_White",
            "pbrMetallicRoughness" : {
                "baseColorFactor" : [
                    0.800000011920929,
                    0.800000011920929,
                    0.800000011920929,
                    1
                ],
                "metallicFactor" : 0,
                "roughnessFactor" : 0.5
            }
        },
        {
            "doubleSided" : true,
            "name" : "Archipluvian_Violet_Text",
            "pbrMetallicRoughness" : {
                "baseColorFactor" : [
                    0.31812959909439087,
                    0.08530419319868088,
                    0.41986608505249023,
                    1
                ],
                "metallicFactor" : 0,
                "roughnessFactor" : 0.5
            }
        },
        {
            "doubleSided" : true,
            "name" : "Archipluvian_Green_Text",
            "pbrMetallicRoughness" : {
                "baseColorFactor" : [
                    0.22805733978748322,
                    0.7831567525863647,
                    0.25823459029197693,
                    1
                ],
                "metallicFactor" : 0,
                "roughnessFactor" : 0.5
            }
        }
    ],
    "meshes" : [
        {
            "name" : "Plane.002",
            "primitives" : [
                {
                    "attributes" : {
                        "POSITION" : 0,
                        "NORMAL" : 1,
                        "TEXCOORD_0" : 2
                    },
                    "indices" : 3,
                    "material" : 0
                }
            ]
        },
        {
            "name" : "Plane.003",
            "primitives" : [
                {
                    "attributes" : {
                        "POSITION" : 4,
                        "NORMAL" : 5,
                        "TEXCOORD_0" : 6
                    },
                    "indices" : 7,
                    "material" : 1
                }
            ]
        },
        {
            "name" : "Plane.005",
            "primitives" : [
                {
                    "attributes" : {
                        "POSITION" : 8,
                        "NORMAL" : 9,
                        "TEXCOORD_0" : 10
                    },
                    "indices" : 11,
                    "material" : 2
                }
            ]
        },
        {
            "name" : "Text.002",
            "primitives" : [
                {
                    "attributes" : {
                        "POSITION" : 12,
                        "NORMAL" : 13,
                        "TEXCOORD_0" : 14
                    },
                    "indices" : 15,
                    "material" : 3
                }
            ]
        },
        {
            "name" : "Text.003",
            "primitives" : [
                {
                    "attributes" : {
                        "POSITION" : 16,
                        "NORMAL" : 17,
                        "TEXCOORD_0" : 18
                    },
                    "indices" : 19
                }
            ]
        },
        {
            "name" : "Text.009",
            "primitives" : [
                {
                    "attributes" : {
                        "POSITION" : 20,
                        "NORMAL" : 21,
                        "TEXCOORD_0" : 22
                    },
                    "indices" : 23,
                    "material" : 4
                }
            ]
        }
    ],
    "accessors" : [
        {
            "bufferView" : 0,
            "componentType" : 5126,
            "count" : 888,
            "max" : [
                5.869999885559082,
                0.9999999403953552,
                6.600290775299072
            ],
            "min" : [
                -5.869999885559082,
                0,
                -5.869999885559082
            ],
            "type" : "VEC3"
        },
        {
            "bufferView" : 1,
            "componentType" : 5126,
            "count" : 888,
            "type" : "VEC3"
        },
        {
            "bufferView" : 2,
            "componentType" : 5126,
            "count" : 888,
            "type" : "VEC2"
        },
        {
            "bufferView" : 3,
            "componentType" : 5123,
            "count" : 1320,
            "type" : "SCALAR"
        },
        {
            "bufferView" : 4,
            "componentType" : 5126,
            "count" : 888,
            "max" : [
                -0.006142139434814453,
                0.4999999403953552,
                0.016201402992010117
            ],
            "min" : [
                -7.592482566833496,
                -0.49995702505111694,
                -6.4926581382751465
            ],
            "type" : "VEC3"
        },
        {
            "bufferView" : 5,
            "componentType" : 5126,
            "count" : 888,
            "type" : "VEC3"
        },
        {
            "bufferView" : 6,
            "componentType" : 5126,
            "count" : 888,
            "type" : "VEC2"
        },
        {
            "bufferView" : 7,
            "componentType" : 5123,
            "count" : 1308,
            "type" : "SCALAR"
        },
        {
            "bufferView" : 8,
            "componentType" : 5126,
            "count" : 864,
            "max" : [
                1,
                0,
                1
            ],
            "min" : [
                -1,
                -0.25,
                -1
            ],
            "type" : "VEC3"
        },
        {
            "bufferView" : 9,
            "componentType" : 5126,
            "count" : 864,
            "type" : "VEC3"
        },
        {
            "bufferView" : 10,
            "componentType" : 5126,
            "count" : 864,
            "type" : "VEC2"
        },
        {
            "bufferView" : 11,
            "componentType" : 5123,
            "count" : 1284,
            "type" : "SCALAR"
        },
        {
            "bufferView" : 12,
            "componentType" : 5126,
            "count" : 1808,
            "max" : [
                0.06829501688480377,
                0.009999999776482582,
                0.05124521255493164
            ],
            "min" : [
                -0.0338122621178627,
                -0.009999999776482582,
                -0.09185824543237686
            ],
            "type" : "VEC3"
        },
        {
            "bufferView" : 13,
            "componentType" : 5126,
            "count" : 1808,
            "type" : "VEC3"
        },
        {
            "bufferView" : 14,
            "componentType" : 5126,
            "count" : 1808,
            "type" : "VEC2"
        },
        {
            "bufferView" : 15,
            "componentType" : 5123,
            "count" : 3228,
            "type" : "SCALAR"
        },
        {
            "bufferView" : 16,
            "componentType" : 5126,
            "count" : 666,
            "max" : [
                0.058908045291900635,
                0.009999999776482582,
                0.050287358462810516
            ],
            "min" : [
                -0.0338122621178627,
                -0.009999999776482582,
                -0.09185824543237686
            ],
            "type" : "VEC3"
        },
        {
            "bufferView" : 17,
            "componentType" : 5126,
            "count" : 666,
            "type" : "VEC3"
        },
        {
            "bufferView" : 18,
            "componentType" : 5126,
            "count" : 666,
            "type" : "VEC2"
        },
        {
            "bufferView" : 19,
            "componentType" : 5123,
            "count" : 1236,
            "type" : "SCALAR"
        },
        {
            "bufferView" : 20,
            "componentType" : 5126,
            "count" : 1520,
            "max" : [
                0.042241379618644714,
                0.009999999776482582,
                0.05124521255493164
            ],
            "min" : [
                -0.04224138334393501,
                -0.009999999776482582,
                -0.05124521255493164
            ],
            "type" : "VEC3"
        },
        {
            "bufferView" : 21,
            "componentType" : 5126,
            "count" : 1520,
            "type" : "VEC3"
        },
        {
            "bufferView" : 22,
            "componentType" : 5126,
            "count" : 1520,
            "type" : "VEC2"
        },
        {
            "bufferView" : 23,
            "componentType" : 5123,
            "count" : 2832,
            "type" : "SCALAR"
        },
        {
            "bufferView" : 24,
            "componentType" : 5126,
            "count" : 190,
            "max" : [
                7.916666666666667
            ],
            "min" : [
                0.041666666666666664
            ],
            "type" : "SCALAR"
        },
        {
            "bufferView" : 25,
            "componentType" : 5126,
            "count" : 190,
            "type" : "VEC4"
        },
        {
            "bufferView" : 26,
            "componentType" : 5126,
            "count" : 210,
            "max" : [
                8.75
            ],
            "min" : [
                0.041666666666666664
            ],
            "type" : "SCALAR"
        },
        {
            "bufferView" : 27,
            "componentType" : 5126,
            "count" : 210,
            "type" : "VEC3"
        }
    ],
    "bufferViews" : [
        {
            "buffer" : 0,
            "byteLength" : 10656,
            "byteOffset" : 0
        },
        {
            "buffer" : 0,
            "byteLength" : 10656,
            "byteOffset" : 10656
        },
        {
            "buffer" : 0,
            "byteLength" : 7104,
            "byteOffset" : 21312
        },
        {
            "buffer" : 0,
            "byteLength" : 2640,
            "byteOffset" : 28416
        },
        {
            "buffer" : 0,
            "byteLength" : 10656,
            "byteOffset" : 31056
        },
        {
            "buffer" : 0,
            "byteLength" : 10656,
            "byteOffset" : 41712
        },
        {
            "buffer" : 0,
            "byteLength" : 7104,
            "byteOffset" : 52368
        },
        {
            "buffer" : 0,
            "byteLength" : 2616,
            "byteOffset" : 59472
        },
        {
            "buffer" : 0,
            "byteLength" : 10368,
            "byteOffset" : 62088
        },
        {
            "buffer" : 0,
            "byteLength" : 10368,
            "byteOffset" : 72456
        },
        {
            "buffer" : 0,
            "byteLength" : 6912,
            "byteOffset" : 82824
        },
        {
            "buffer" : 0,
            "byteLength" : 2568,
            "byteOffset" : 89736
        },
        {
            "buffer" : 0,
            "byteLength" : 21696,
            "byteOffset" : 92304
        },
        {
            "buffer" : 0,
            "byteLength" : 21696,
            "byteOffset" : 114000
        },
        {
            "buffer" : 0,
            "byteLength" : 14464,
            "byteOffset" : 135696
        },
        {
            "buffer" : 0,
            "byteLength" : 6456,
            "byteOffset" : 150160
        },
        {
            "buffer" : 0,
            "byteLength" : 7992,
            "byteOffset" : 156616
        },
        {
            "buffer" : 0,
            "byteLength" : 7992,
            "byteOffset" : 164608
        },
        {
            "buffer" : 0,
            "byteLength" : 5328,
            "byteOffset" : 172600
        },
        {
            "buffer" : 0,
            "byteLength" : 2472,
            "byteOffset" : 177928
        },
        {
            "buffer" : 0,
            "byteLength" : 18240,
            "byteOffset" : 180400
        },
        {
            "buffer" : 0,
            "byteLength" : 18240,
            "byteOffset" : 198640
        },
        {
            "buffer" : 0,
            "byteLength" : 12160,
            "byteOffset" : 216880
        },
        {
            "buffer" : 0,
            "byteLength" : 5664,
            "byteOffset" : 229040
        },
        {
            "buffer" : 0,
            "byteLength" : 760,
            "byteOffset" : 234704
        },
        {
            "buffer" : 0,
            "byteLength" : 3040,
            "byteOffset" : 235464
        },
        {
            "buffer" : 0,
            "byteLength" : 840,
            "byteOffset" : 238504
        },
        {
            "buffer" : 0,
            "byteLength" : 2520,
            "byteOffset" : 239344
        }
    ],
    "buffers" : [
        {
            "byteLength" : 241864,
            "uri" : "data:application/octet-stream;base64,"
        }
    ]
}
